<?xml version="1.0" standalone="no"?>
<!DOCTYPE svg PUBLIC "-//W3C//DTD SVG 20010904//EN"
 "http://www.w3.org/TR/2001/REC-SVG-20010904/DTD/svg10.dtd">
<svg version="1.0" xmlns="http://www.w3.org/2000/svg"
 width="500.000000pt" height="500.000000pt" viewBox="0 0 500.000000 500.000000"
 preserveAspectRatio="xMidYMid meet">

<g transform="translate(0.000000,500.000000) scale(0.100000,-0.100000)"
fill="#000000" stroke="none">
<path d="M2883 2843 c-8 -3 -13 -25 -13 -60 0 -49 -2 -54 -17 -48 -88 37 -150
30 -204 -24 -49 -48 -65 -107 -51 -179 13 -61 42 -106 82 -127 39 -20 129 -19
158 1 21 15 25 15 41 0 21 -19 43 -20 59 -4 17 17 17 419 0 436 -12 12 -33 14
-55 5z m-44 -179 c29 -24 31 -31 31 -89 0 -74 -17 -102 -70 -114 -79 -17 -125
25 -125 116 0 49 3 58 33 84 42 38 89 39 131 3z"/>
<path d="M3027 2843 c-15 -14 -7 -62 12 -68 40 -12 70 20 51 56 -10 18 -50 26
-63 12z"/>
<path d="M1421 2826 c-8 -9 -11 -73 -9 -216 3 -181 5 -204 21 -214 12 -8 22
-8 35 0 13 9 18 28 20 93 l3 81 122 0 c130 0 154 7 136 42 -9 16 -23 18 -134
18 l-125 0 0 75 0 74 138 3 137 3 0 25 0 25 -166 3 c-133 2 -168 0 -178 -12z"/>
<path d="M1905 2741 c-74 -34 -105 -85 -105 -173 0 -91 45 -152 128 -173 59
-16 130 -5 173 26 80 57 94 204 26 278 -31 33 -95 61 -142 61 -22 0 -58 -9
-80 -19z m151 -85 c29 -29 34 -41 34 -83 0 -55 -17 -86 -62 -109 -72 -37 -148
18 -148 108 0 44 4 54 34 84 26 26 42 34 71 34 29 0 45 -8 71 -34z"/>
<path d="M2319 2750 c-77 -23 -122 -90 -122 -180 0 -113 70 -182 184 -182 111
0 189 75 189 181 0 51 -26 116 -56 143 -47 41 -131 58 -195 38z m119 -76 c79
-55 63 -188 -26 -215 -47 -14 -83 0 -115 43 -25 33 -26 107 -3 140 33 47 101
62 144 32z"/>
<path d="M3252 2752 c-36 -11 -93 -62 -108 -98 -18 -43 -18 -125 0 -167 37
-90 178 -130 273 -79 32 18 47 50 32 68 -15 19 -27 18 -74 -7 -50 -26 -98 -20
-137 17 -15 15 -28 31 -28 36 0 4 55 8 123 8 152 0 163 6 154 75 -9 65 -42
113 -91 136 -41 18 -101 23 -144 11z m125 -77 c22 -15 46 -69 36 -79 -11 -11
-203 -7 -203 5 0 18 21 53 44 71 26 22 94 23 123 3z"/>
<path d="M3027 2743 c-4 -3 -7 -82 -7 -174 0 -145 2 -168 16 -173 26 -10 51 2
58 27 10 38 7 287 -4 308 -10 18 -50 26 -63 12z"/>
<path d="M2591 2184 c0 -11 3 -14 6 -6 3 7 2 16 -1 19 -3 4 -6 -2 -5 -13z"/>
<path d="M2581 2144 c0 -11 3 -14 6 -6 3 7 2 16 -1 19 -3 4 -6 -2 -5 -13z"/>
<path d="M2312 2138 c-7 -7 -12 -16 -12 -22 0 -5 6 -2 13 8 8 11 23 17 38 14
38 -5 37 -47 -2 -95 l-32 -38 37 37 c50 53 46 108 -9 108 -12 0 -26 -5 -33
-12z"/>
<path d="M2475 2129 c-15 -18 -15 -20 -2 -10 16 12 17 10 17 -33 l0 -46 -36 0
c-24 0 -33 4 -28 12 4 7 3 8 -4 4 -24 -14 -11 -26 27 -26 33 0 40 -4 44 -22
l4 -23 2 23 c0 12 7 22 14 22 9 0 9 2 0 8 -6 4 -13 31 -15 61 l-3 53 -20 -23z"/>
<path d="M2620 2144 c38 -8 90 -9 90 -2 0 4 -24 7 -52 7 -29 -1 -46 -3 -38 -5z"/>
<path d="M2571 2104 c0 -11 3 -14 6 -6 3 7 2 16 -1 19 -3 4 -6 -2 -5 -13z"/>
<path d="M2439 2083 c-13 -16 -12 -17 4 -4 9 7 17 15 17 17 0 8 -8 3 -21 -13z"/>
<path d="M2561 2064 c0 -11 3 -14 6 -6 3 7 2 16 -1 19 -3 4 -6 -2 -5 -13z"/>
<path d="M2666 2055 c-9 -26 -7 -32 5 -12 6 10 9 21 6 23 -2 3 -7 -2 -11 -11z"/>
<path d="M2551 2024 c0 -11 3 -14 6 -6 3 7 2 16 -1 19 -3 4 -6 -2 -5 -13z"/>
<path d="M2294 1998 c-3 -4 21 -7 53 -7 60 1 56 5 -10 11 -21 2 -40 0 -43 -4z"/>
<path d="M2541 1984 c0 -11 3 -14 6 -6 3 7 2 16 -1 19 -3 4 -6 -2 -5 -13z"/>
<path d="M2361 1746 c-66 -24 -99 -93 -71 -147 16 -29 63 -49 132 -56 35 -3
73 -10 86 -14 25 -10 29 -40 8 -58 -39 -32 -149 -19 -161 19 -13 40 -75 32
-75 -9 0 -53 67 -93 159 -93 108 -1 171 42 171 117 0 61 -43 92 -142 102 -107
10 -135 33 -86 67 35 25 101 20 136 -9 34 -29 54 -31 72 -10 20 25 -3 63 -53
85 -48 22 -125 25 -176 6z"/>
</g>
</svg>
